<svg xmlns="http://www.w3.org/2000/svg" width="96" height="96" viewBox="0 0 96 96" fill="none">
  <defs>
    <linearGradient id="g" x1="18" y1="12" x2="78" y2="84" gradientUnits="userSpaceOnUse">
      <stop stop-color="#6366F1"/>
      <stop offset="0.55" stop-color="#4F46E5"/>
      <stop offset="1" stop-color="#10B981"/>
    </linearGradient>
    <filter id="s" x="-30%" y="-30%" width="160%" height="160%">
      <feDropShadow dx="0" dy="10" stdDeviation="8" flood-color="#000" flood-opacity="0.25"/>
    </filter>
  </defs>
  <g filter="url(#s)">
    <path d="M48 10C62.6 10 74.6 17.5 80.6 26.9C86.6 36.2 86.9 47.9 81.5 58.2C76.2 68.4 66.1 76.4 53.8 79.2C41.6 82 27.8 79.4 18.2 70.8C8.5 62.1 4 48.6 6.8 35.9C9.6 23.2 19.4 11.5 32.7 10.1C37.7 9.6 42.8 10 48 10Z" fill="url(#g)"/>
    <path d="M26 36.5L48 27l22 9.5v2.7L48 49.8 26 39.2v-2.7Z" fill="white" opacity="0.95"/>
    <path d="M30 42.3v13.8c0 1.8 1.2 3.4 3 4.1 4.6 1.9 9.8 3 15 3s10.4-1.1 15-3c1.8-.7 3-2.3 3-4.1V42.3L48 51.8 30 42.3Z" fill="white" opacity="0.92"/>
    <path d="M70 37.8v15.6" stroke="white" stroke-width="3.6" stroke-linecap="round" opacity="0.9"/>
    <circle cx="70" cy="56.2" r="3.2" fill="white" opacity="0.9"/>
  </g>
</svg>
